<svg width="435" height="100" viewBox="0 0 435 100" fill="none" xmlns="http://www.w3.org/2000/svg">
<path d="M134.63 26.825C139.44 26.825 143.643 27.7567 147.24 29.62C150.88 31.44 153.675 34.0833 155.625 37.55C157.618 40.9733 158.615 44.9817 158.615 49.575C158.615 54.1683 157.618 58.155 155.625 61.535C153.675 64.915 150.88 67.515 147.24 69.335C143.643 71.1117 139.44 72 134.63 72H119.875V26.825H134.63ZM134.63 65.955C139.917 65.955 143.968 64.525 146.785 61.665C149.602 58.805 151.01 54.775 151.01 49.575C151.01 44.3317 149.602 40.2367 146.785 37.29C143.968 34.3433 139.917 32.87 134.63 32.87H127.285V65.955H134.63ZM169.729 31.44C168.386 31.44 167.259 30.985 166.349 30.075C165.439 29.165 164.984 28.0383 164.984 26.695C164.984 25.3517 165.439 24.225 166.349 23.315C167.259 22.405 168.386 21.95 169.729 21.95C171.029 21.95 172.134 22.405 173.044 23.315C173.954 24.225 174.409 25.3517 174.409 26.695C174.409 28.0383 173.954 29.165 173.044 30.075C172.134 30.985 171.029 31.44 169.729 31.44ZM173.369 36.185V72H165.959V36.185H173.369ZM196.098 72.585C193.281 72.585 190.746 72.0867 188.493 71.09C186.283 70.05 184.528 68.6633 183.228 66.93C181.928 65.1533 181.234 63.1817 181.148 61.015H188.818C188.948 62.5317 189.663 63.81 190.963 64.85C192.306 65.8467 193.974 66.345 195.968 66.345C198.048 66.345 199.651 65.955 200.778 65.175C201.948 64.3517 202.533 63.3117 202.533 62.055C202.533 60.7117 201.883 59.715 200.583 59.065C199.326 58.415 197.311 57.7 194.538 56.92C191.851 56.1833 189.663 55.4683 187.973 54.775C186.283 54.0817 184.809 53.02 183.553 51.59C182.339 50.16 181.733 48.275 181.733 45.935C181.733 44.0283 182.296 42.295 183.423 40.735C184.549 39.1317 186.153 37.875 188.233 36.965C190.356 36.055 192.783 35.6 195.513 35.6C199.586 35.6 202.858 36.64 205.328 38.72C207.841 40.7567 209.184 43.5517 209.358 47.105H201.948C201.818 45.5017 201.168 44.2233 199.998 43.27C198.828 42.3167 197.246 41.84 195.253 41.84C193.303 41.84 191.808 42.2083 190.768 42.945C189.728 43.6817 189.208 44.6567 189.208 45.87C189.208 46.8233 189.554 47.625 190.248 48.275C190.941 48.925 191.786 49.445 192.783 49.835C193.779 50.1817 195.253 50.6367 197.203 51.2C199.803 51.8933 201.926 52.6083 203.573 53.345C205.263 54.0383 206.714 55.0783 207.928 56.465C209.141 57.8517 209.769 59.6933 209.813 61.99C209.813 64.0267 209.249 65.8467 208.123 67.45C206.996 69.0533 205.393 70.31 203.313 71.22C201.276 72.13 198.871 72.585 196.098 72.585ZM265.919 36.185L254.804 72H247.004L239.789 45.545L232.574 72H224.774L213.594 36.185H221.134L228.609 64.98L236.214 36.185H243.949L251.229 64.85L258.639 36.185H265.919ZM286.992 72.585C283.612 72.585 280.557 71.8267 277.827 70.31C275.097 68.75 272.952 66.5833 271.392 63.81C269.832 60.9933 269.052 57.7433 269.052 54.06C269.052 50.42 269.854 47.1917 271.457 44.375C273.06 41.5583 275.249 39.3917 278.022 37.875C280.795 36.3583 283.894 35.6 287.317 35.6C290.74 35.6 293.839 36.3583 296.612 37.875C299.385 39.3917 301.574 41.5583 303.177 44.375C304.78 47.1917 305.582 50.42 305.582 54.06C305.582 57.7 304.759 60.9283 303.112 63.745C301.465 66.5617 299.212 68.75 296.352 70.31C293.535 71.8267 290.415 72.585 286.992 72.585ZM286.992 66.15C288.899 66.15 290.675 65.695 292.322 64.785C294.012 63.875 295.377 62.51 296.417 60.69C297.457 58.87 297.977 56.66 297.977 54.06C297.977 51.46 297.479 49.2717 296.482 47.495C295.485 45.675 294.164 44.31 292.517 43.4C290.87 42.49 289.094 42.035 287.187 42.035C285.28 42.035 283.504 42.49 281.857 43.4C280.254 44.31 278.975 45.675 278.022 47.495C277.069 49.2717 276.592 51.46 276.592 54.06C276.592 57.9167 277.567 60.9067 279.517 63.03C281.51 65.11 284.002 66.15 286.992 66.15ZM320.317 41.385C321.401 39.565 322.831 38.1567 324.607 37.16C326.427 36.12 328.572 35.6 331.042 35.6V43.27H329.157C326.254 43.27 324.044 44.0067 322.527 45.48C321.054 46.9533 320.317 49.51 320.317 53.15V72H312.907V36.185H320.317V41.385ZM335.384 53.93C335.384 50.3333 336.12 47.1483 337.594 44.375C339.11 41.6017 341.147 39.4567 343.704 37.94C346.304 36.38 349.185 35.6 352.349 35.6C354.689 35.6 356.985 36.12 359.239 37.16C361.535 38.1567 363.355 39.5 364.699 41.19V23.9H372.174V72H364.699V66.605C363.485 68.3383 361.795 69.7683 359.629 70.895C357.505 72.0217 355.057 72.585 352.284 72.585C349.164 72.585 346.304 71.805 343.704 70.245C341.147 68.6417 339.11 66.4317 337.594 63.615C336.12 60.755 335.384 57.5267 335.384 53.93ZM364.699 54.06C364.699 51.59 364.179 49.445 363.139 47.625C362.142 45.805 360.82 44.4183 359.174 43.465C357.527 42.5117 355.75 42.035 353.844 42.035C351.937 42.035 350.16 42.5117 348.514 43.465C346.867 44.375 345.524 45.74 344.484 47.56C343.487 49.3367 342.989 51.46 342.989 53.93C342.989 56.4 343.487 58.5667 344.484 60.43C345.524 62.2933 346.867 63.7233 348.514 64.72C350.204 65.6733 351.98 66.15 353.844 66.15C355.75 66.15 357.527 65.6733 359.174 64.72C360.82 63.7667 362.142 62.38 363.139 60.56C364.179 58.6967 364.699 56.53 364.699 54.06ZM389.316 23.9V72H381.906V23.9H389.316ZM431.87 53.215C431.87 54.5583 431.783 55.7717 431.61 56.855H404.245C404.462 59.715 405.523 62.0117 407.43 63.745C409.337 65.4783 411.677 66.345 414.45 66.345C418.437 66.345 421.253 64.6767 422.9 61.34H430.895C429.812 64.6333 427.84 67.3417 424.98 69.465C422.163 71.545 418.653 72.585 414.45 72.585C411.027 72.585 407.95 71.8267 405.22 70.31C402.533 68.75 400.41 66.5833 398.85 63.81C397.333 60.9933 396.575 57.7433 396.575 54.06C396.575 50.3767 397.312 47.1483 398.785 44.375C400.302 41.5583 402.403 39.3917 405.09 37.875C407.82 36.3583 410.94 35.6 414.45 35.6C417.83 35.6 420.842 36.3367 423.485 37.81C426.128 39.2833 428.187 41.3633 429.66 44.05C431.133 46.6933 431.87 49.7483 431.87 53.215ZM424.135 50.875C424.092 48.145 423.117 45.9567 421.21 44.31C419.303 42.6633 416.942 41.84 414.125 41.84C411.568 41.84 409.38 42.6633 407.56 44.31C405.74 45.9133 404.657 48.1017 404.31 50.875H424.135Z" fill="#E4E4E4"/>
<rect x="40.0002" y="40" width="40" height="40" rx="5" fill="#E4E4E4"/>
<rect x="20.0002" y="20" width="40" height="40" rx="5" fill="#F0F0F0"/>
</svg>
